<svg id="Layer_1" data-name="Layer 1" xmlns="http://www.w3.org/2000/svg" xmlns:xlink="http://www.w3.org/1999/xlink" viewBox="0 0 77.27 75.88"><defs><style>.cls-1{fill:none;}.cls-2{opacity:0.74;}.cls-3{isolation:isolate;}.cls-4{clip-path:url(#clip-path);}.cls-5{fill:#0b1c5f;}.cls-6{fill:#0d1e62;}.cls-7{fill:#0a1a5d;}.cls-8{clip-path:url(#clip-path-2);}.cls-9{fill:#0c1d60;}.cls-10{clip-path:url(#clip-path-3);}.cls-11{fill:#0e2064;}.cls-12{fill:#0f2167;}.cls-13{fill:#112369;}.cls-14{fill:#12256c;}.cls-15{fill:#13266e;}.cls-16{fill:#142870;}.cls-17{fill:#152a73;}.cls-18{clip-path:url(#clip-path-4);}.cls-19{fill:#858585;}.cls-20{clip-path:url(#clip-path-5);}.cls-21{clip-path:url(#clip-path-6);}.cls-22{clip-path:url(#clip-path-7);}.cls-23{fill:#adadad;}.cls-24{fill:#a8a8a8;}.cls-25{fill:#a3a3a3;}.cls-26{fill:#9e9e9e;}.cls-27{fill:#999;}.cls-28{fill:#949494;}.cls-29{fill:#8f8f8f;}.cls-30{fill:#8a8a8a;}.cls-31{clip-path:url(#clip-path-8);}.cls-32{fill:gray;}.cls-33{clip-path:url(#clip-path-9);}.cls-34{clip-path:url(#clip-path-10);}.cls-35{fill:#878787;}.cls-36{clip-path:url(#clip-path-11);}.cls-37{clip-path:url(#clip-path-12);}.cls-38{fill:#cacaca;}.cls-39{fill:#1a3281;}.cls-40{clip-path:url(#clip-path-13);}.cls-41{fill:#36489e;}.cls-42{fill:#1d64b0;}</style><clipPath id="clip-path" transform="translate(-1.9 -1.28)"><path class="cls-1" d="M59.16,73.46l-2.37-4.65a7.33,7.33,0,0,0,6-4.25l2.37,4.66a7.25,7.25,0,0,1-6,4.24Z"/></clipPath><clipPath id="clip-path-2" transform="translate(-1.9 -1.28)"><path class="cls-1" d="M23.51,73l-2.37-4.65a7.25,7.25,0,0,0,6.62,3.09l2.37,4.66A7.25,7.25,0,0,1,23.51,73Z"/></clipPath><clipPath id="clip-path-3" transform="translate(-1.9 -1.28)"><path class="cls-1" d="M75,30.91l2.37,4.66a7.22,7.22,0,0,1,.14,6.24l-2.37-4.65A7.28,7.28,0,0,0,75,30.91Z"/></clipPath><clipPath id="clip-path-4" transform="translate(-1.9 -1.28)"><path class="cls-1" d="M74.54,30.11a7.36,7.36,0,0,1,.48.8l2.37,4.66a5.84,5.84,0,0,0-.48-.8Z"/></clipPath><clipPath id="clip-path-5" transform="translate(-1.9 -1.28)"><path class="cls-1" d="M75.91,30.46l2.37,4.65a8.46,8.46,0,0,0-.55-.91l-2.37-4.66A10.64,10.64,0,0,1,75.91,30.46Z"/></clipPath><clipPath id="clip-path-6" transform="translate(-1.9 -1.28)"><path class="cls-1" d="M6.05,47.55,3.68,42.89a7.83,7.83,0,0,0,.47.79l2.37,4.66A9.12,9.12,0,0,1,6.05,47.55Z"/></clipPath><clipPath id="clip-path-7" transform="translate(-1.9 -1.28)"><path class="cls-1" d="M6.05,47.55,3.68,42.89a7.3,7.3,0,0,1-.15-6.26L5.9,41.29A7.3,7.3,0,0,0,6.05,47.55Z"/></clipPath><clipPath id="clip-path-8" transform="translate(-1.9 -1.28)"><path class="cls-1" d="M5.17,48,2.79,43.35a8.23,8.23,0,0,1-.16-7.12L5,40.89A8.17,8.17,0,0,0,5.17,48Z"/></clipPath><clipPath id="clip-path-9" transform="translate(-1.9 -1.28)"><path class="cls-1" d="M53.3,7,50.93,2.31A7.24,7.24,0,0,1,57.55,5.4l2.37,4.66A7.24,7.24,0,0,0,53.3,7Z"/></clipPath><clipPath id="clip-path-10" transform="translate(-1.9 -1.28)"><path class="cls-1" d="M53.22,6,50.84,1.31a8.25,8.25,0,0,1,7.53,3.52l2.38,4.66A8.27,8.27,0,0,0,53.22,6Z"/></clipPath><clipPath id="clip-path-11" transform="translate(-1.9 -1.28)"><path class="cls-1" d="M18.31,13.88,15.94,9.23a7.22,7.22,0,0,1,3.32-3.49l2.38,4.66A7.26,7.26,0,0,0,18.31,13.88Z"/></clipPath><clipPath id="clip-path-12" transform="translate(-1.9 -1.28)"><path class="cls-1" d="M21.64,10.4,19.26,5.74A7.45,7.45,0,0,1,21.9,5l2.38,4.66A7.19,7.19,0,0,0,21.64,10.4Z"/></clipPath><clipPath id="clip-path-13" transform="translate(-1.9 -1.28)"><path class="cls-1" d="M17.39,13.48,15,8.82A8.31,8.31,0,0,1,21.81,4l2.38,4.66a8.16,8.16,0,0,0-3,.86A8.31,8.31,0,0,0,17.39,13.48Z"/></clipPath></defs><g class="cls-2"><g class="cls-3"><g class="cls-3"><g class="cls-4"><g class="cls-3"><path class="cls-5" d="M59.16,73.46l-2.37-4.65a7.3,7.3,0,0,0,5.91-4.14l2.38,4.66a7.25,7.25,0,0,1-5.92,4.13" transform="translate(-1.9 -1.28)"/><path class="cls-6" d="M65.08,69.33,62.7,64.67l.06-.11,2.37,4.66a1.17,1.17,0,0,0,0,.11" transform="translate(-1.9 -1.28)"/></g></g></g><polygon class="cls-7" points="28.23 74.86 25.86 70.2 54.89 67.53 57.26 72.18 28.23 74.86"/><g class="cls-3"><g class="cls-8"><g class="cls-3"><path class="cls-5" d="M23.51,73l-2.37-4.65a7.25,7.25,0,0,0,6.62,3.09l2.37,4.66A7.25,7.25,0,0,1,23.51,73" transform="translate(-1.9 -1.28)"/></g></g></g><polygon class="cls-9" points="63.23 67.94 60.86 63.28 73.26 35.87 75.63 40.53 63.23 67.94"/><g class="cls-3"><g class="cls-10"><g class="cls-3"><path class="cls-6" d="M77.53,41.81l-2.37-4.65c.12-.28.23-.57.32-.85L77.85,41a6.72,6.72,0,0,1-.32.85" transform="translate(-1.9 -1.28)"/><path class="cls-11" d="M77.85,41l-2.37-4.65a8,8,0,0,0,.2-.81l2.37,4.66a7.19,7.19,0,0,1-.2.8" transform="translate(-1.9 -1.28)"/><path class="cls-12" d="M78.05,40.16,75.68,35.5a6.39,6.39,0,0,0,.09-.75l2.38,4.66a6.42,6.42,0,0,1-.1.75" transform="translate(-1.9 -1.28)"/><path class="cls-13" d="M78.15,39.41l-2.38-4.66c0-.24,0-.49,0-.73l2.37,4.66c0,.24,0,.48,0,.73" transform="translate(-1.9 -1.28)"/><path class="cls-14" d="M78.17,38.68,75.8,34q0-.36-.06-.72L78.12,38c0,.24,0,.49,0,.73" transform="translate(-1.9 -1.28)"/><path class="cls-15" d="M78.12,38,75.74,33.3a6.54,6.54,0,0,0-.13-.75L78,37.21c.06.25.1.49.14.74" transform="translate(-1.9 -1.28)"/><path class="cls-16" d="M78,37.21l-2.37-4.66a7,7,0,0,0-.23-.78l2.38,4.65a7.1,7.1,0,0,1,.22.79" transform="translate(-1.9 -1.28)"/><path class="cls-17" d="M77.76,36.42l-2.38-4.65a7.12,7.12,0,0,0-.36-.86l2.37,4.66a9.1,9.1,0,0,1,.37.85" transform="translate(-1.9 -1.28)"/></g></g></g><g class="cls-3"><g class="cls-18"><g class="cls-3"><path class="cls-19" d="M76.91,34.77l-2.37-4.66a7.36,7.36,0,0,1,.48.8l2.37,4.66a5.84,5.84,0,0,0-.48-.8" transform="translate(-1.9 -1.28)"/></g></g></g><g class="cls-3"><g class="cls-20"><g class="cls-3"><path class="cls-5" d="M77.73,34.2l-2.37-4.66a10.64,10.64,0,0,1,.55.92l2.37,4.65a8.46,8.46,0,0,0-.55-.91" transform="translate(-1.9 -1.28)"/></g></g></g><polygon class="cls-7" points="4.62 47.06 2.25 42.4 19.24 67.1 21.62 71.76 4.62 47.06"/><g class="cls-3"><g class="cls-21"><g class="cls-3"><path class="cls-5" d="M6.05,47.55,3.68,42.89a7.83,7.83,0,0,0,.47.79l2.37,4.66a9.12,9.12,0,0,1-.47-.79" transform="translate(-1.9 -1.28)"/></g></g></g><g class="cls-3"><g class="cls-22"><g class="cls-3"><path class="cls-23" d="M6.05,47.55,3.68,42.89A8.25,8.25,0,0,1,3.31,42l2.37,4.66a9.28,9.28,0,0,0,.37.86" transform="translate(-1.9 -1.28)"/><path class="cls-24" d="M5.68,46.69,3.31,42a7.15,7.15,0,0,1-.23-.79L5.45,45.9c.07.27.14.53.23.79" transform="translate(-1.9 -1.28)"/><path class="cls-25" d="M5.45,45.9,3.08,41.24A6.54,6.54,0,0,1,3,40.49l2.37,4.66c0,.25.08.5.13.75" transform="translate(-1.9 -1.28)"/><path class="cls-26" d="M5.32,45.15,3,40.49a5.84,5.84,0,0,1-.05-.73l2.37,4.66a6,6,0,0,0,.05.73" transform="translate(-1.9 -1.28)"/><path class="cls-27" d="M5.27,44.42,2.9,39.76a5.93,5.93,0,0,1,0-.73l2.37,4.66a5.88,5.88,0,0,0,0,.73" transform="translate(-1.9 -1.28)"/><path class="cls-28" d="M5.29,43.69,2.92,39a6.42,6.42,0,0,1,.1-.75l2.37,4.65a6.59,6.59,0,0,0-.1.76" transform="translate(-1.9 -1.28)"/><path class="cls-29" d="M5.39,42.93,3,38.28a7.91,7.91,0,0,1,.19-.81l2.38,4.66a5.51,5.51,0,0,0-.2.8" transform="translate(-1.9 -1.28)"/><path class="cls-30" d="M5.59,42.13,3.21,37.47c.09-.28.2-.56.32-.84L5.9,41.29a6,6,0,0,0-.31.84" transform="translate(-1.9 -1.28)"/></g></g></g><g class="cls-3"><g class="cls-31"><g class="cls-3"><path class="cls-17" d="M5.17,48,2.79,43.35a9.32,9.32,0,0,1-.42-1L4.74,47a6.61,6.61,0,0,0,.43,1" transform="translate(-1.9 -1.28)"/><path class="cls-16" d="M4.74,47,2.37,42.37c-.1-.3-.19-.6-.26-.9l2.37,4.65a8.52,8.52,0,0,0,.26.9" transform="translate(-1.9 -1.28)"/><path class="cls-15" d="M4.48,46.12,2.11,41.47A6.31,6.31,0,0,1,2,40.62l2.37,4.66q.06.42.15.84" transform="translate(-1.9 -1.28)"/><path class="cls-14" d="M4.33,45.28,2,40.62c0-.27-.05-.55-.06-.83l2.37,4.66c0,.28,0,.55.06.83" transform="translate(-1.9 -1.28)"/><path class="cls-13" d="M4.27,44.45,1.9,39.79a7.48,7.48,0,0,1,0-.82L4.3,43.62a7.68,7.68,0,0,0,0,.83" transform="translate(-1.9 -1.28)"/><path class="cls-12" d="M4.3,43.62,1.92,39c0-.29.06-.57.11-.86l2.38,4.66a8.24,8.24,0,0,0-.11.85" transform="translate(-1.9 -1.28)"/><path class="cls-11" d="M4.41,42.77,2,38.11c.06-.3.14-.61.23-.91l2.37,4.66a7.09,7.09,0,0,0-.22.91" transform="translate(-1.9 -1.28)"/><path class="cls-6" d="M4.63,41.86,2.26,37.2a7.15,7.15,0,0,1,.37-1L5,40.89a6.68,6.68,0,0,0-.37,1" transform="translate(-1.9 -1.28)"/></g></g></g><polygon class="cls-32" points="58.02 8.78 55.65 4.12 72.64 28.83 75.01 33.48 58.02 8.78"/><polygon class="cls-7" points="58.85 8.21 56.48 3.55 73.46 28.26 75.83 32.91 58.85 8.21"/><g class="cls-3"><g class="cls-33"><g class="cls-3"><path class="cls-19" d="M53.3,7,50.93,2.31A7.24,7.24,0,0,1,57.55,5.4l2.37,4.66A7.24,7.24,0,0,0,53.3,7" transform="translate(-1.9 -1.28)"/></g></g></g><g class="cls-3"><g class="cls-34"><g class="cls-3"><path class="cls-5" d="M53.22,6,50.84,1.31a8.25,8.25,0,0,1,7.53,3.52l2.38,4.66A8.27,8.27,0,0,0,53.22,6" transform="translate(-1.9 -1.28)"/></g></g></g><polygon class="cls-35" points="4 40.01 1.63 35.35 14.04 7.95 16.41 12.6 4 40.01"/><polygon class="cls-9" points="3.1 39.61 0.73 34.95 13.12 7.54 15.5 12.19 3.1 39.61"/><polygon class="cls-32" points="22.38 8.36 20.01 3.7 49.03 1.03 51.4 5.68 22.38 8.36"/><g class="cls-3"><g class="cls-36"><g class="cls-3"><path class="cls-30" d="M18.31,13.88,15.94,9.23s0-.07,0-.11l2.38,4.66-.05.1" transform="translate(-1.9 -1.28)"/><path class="cls-19" d="M18.36,13.78,16,9.12a7.36,7.36,0,0,1,3.28-3.38l2.38,4.66a7.22,7.22,0,0,0-3.28,3.38" transform="translate(-1.9 -1.28)"/></g></g></g><g class="cls-3"><g class="cls-37"><g class="cls-3"><path class="cls-19" d="M21.64,10.4,19.26,5.74A7.45,7.45,0,0,1,21.9,5l2.38,4.66a7.19,7.19,0,0,0-2.64.76" transform="translate(-1.9 -1.28)"/></g></g></g><path class="cls-38" d="M21.64,10.4a7.19,7.19,0,0,1,2.64-.76L53.3,7a7.24,7.24,0,0,1,6.62,3.1l17,24.71a7.2,7.2,0,0,1,.62,7L65.13,69.22a7.25,7.25,0,0,1-6,4.24l-29,2.68A7.25,7.25,0,0,1,23.51,73l-17-24.7a7.27,7.27,0,0,1-.62-7.05L18.31,13.88A7.26,7.26,0,0,1,21.64,10.4Z" transform="translate(-1.9 -1.28)"/><polygon class="cls-7" points="22.29 7.37 19.92 2.71 48.95 0.03 51.32 4.69 22.29 7.37"/><path class="cls-39" d="M77.73,34.2a8.19,8.19,0,0,1,.71,8L66,69.62a8.24,8.24,0,0,1-3.79,4,7.94,7.94,0,0,1-3,.87l-29,2.68a8.27,8.27,0,0,1-7.53-3.52l-17-24.7a8.24,8.24,0,0,1-.7-8L17.39,13.48a8.31,8.31,0,0,1,3.79-4,8.16,8.16,0,0,1,3-.86L53.22,6a8.27,8.27,0,0,1,7.53,3.52Zm-.2,7.61a7.2,7.2,0,0,0-.62-7l-17-24.71A7.24,7.24,0,0,0,53.3,7l-29,2.68a7.19,7.19,0,0,0-2.64.76,7.26,7.26,0,0,0-3.33,3.48L5.9,41.29a7.27,7.27,0,0,0,.62,7.05l17,24.7a7.25,7.25,0,0,0,6.62,3.1l29-2.68a7.25,7.25,0,0,0,6-4.24l12.4-27.41" transform="translate(-1.9 -1.28)"/><g class="cls-3"><g class="cls-40"><g class="cls-3"><path class="cls-6" d="M17.39,13.48,15,8.82l.05-.1,2.37,4.66-.05.1" transform="translate(-1.9 -1.28)"/><path class="cls-5" d="M17.44,13.38,15.07,8.72A8.3,8.3,0,0,1,21.81,4l2.38,4.66a8.16,8.16,0,0,0-3,.86,8.31,8.31,0,0,0-3.74,3.87" transform="translate(-1.9 -1.28)"/></g></g></g></g></g><path class="cls-41" d="M23.81,70.81c-.3-5.81-.49-12.72-.36-20.29.23-13.7,1.86-23.46,4.75-29.93s6.9-10.41,12.4-10.41,10,3.74,13,10.65S58.24,39.14,58,53.5c-.12,6.8-.36,12.5-.7,17.33Zm30.27-9.53c.24-2.41.35-5.92.42-9.64.34-20.4-4.72-31.47-13.92-31.48-8-.11-13.3,9.75-13.64,29.93-.08,4.93.06,8.66.27,11.18Z" transform="translate(-1.9 -1.28)"/><path class="cls-42" d="M53.22,59.25l-24.71,0L28,44.58c-.17-4.87.27-8.54,1.29-11s2.63-3.69,4.8-3.69a4,4,0,0,1,3.12,1.78,13.85,13.85,0,0,1,2.23,4.88,12.42,12.42,0,0,1,1.93-5.76,4.41,4.41,0,0,1,3.67-2.12q3.33,0,5.36,3.92t2.27,11.07ZM38.85,53.34l-.3-9a15.35,15.35,0,0,0-1.28-6.22c-.77-1.55-1.76-2.33-3-2.33A3,3,0,0,0,31.39,38a17.3,17.3,0,0,0-.71,6.57l.3,8.77Zm2.61,0h8.9L50,43.54A15.33,15.33,0,0,0,48.63,37c-.84-1.6-2-2.39-3.33-2.39q-4.47,0-4.17,8.83Z" transform="translate(-1.9 -1.28)"/></svg>